# xmcd
#
# Track frame offsets:
#	150
#	20925
#	40510
#	68430
#	91459
#	109108
#	129233
#	156048
#	170985
#	195120
#	220259
#
# Disc length: 3200 seconds
#
# Revision: 0
# Processed by: cddbd v1.5.1PL2 Copyright (c) Steve Scherf et al.
# Submitted via: dBpowerAMP V4.0
#
DISCID=8c0c7e0b
DTITLE=Junkyard Dogs - Snakehat
DYEAR=2006
DGENRE=Blues
TTITLE0=Keep On Lovin' Me Baby
TTITLE1=Roadhouse Blues
TTITLE2=Hootchie Cootchie Man
TTITLE3=Bones
TTITLE4=I Just Wanna Make Love To You
TTITLE5=Don't Piss Me Off
TTITLE6=Happy Man's Blues
TTITLE7=Blues Before Sunrise
TTITLE8=JD Blues (Take Ya Bags)
TTITLE9=Little Wing
TTITLE10=One Step
EXTD=www.junkyarddogs.info
EXTT0=
EXTT1=
EXTT2=
EXTT3=
EXTT4=
EXTT5=
EXTT6=
EXTT7=
EXTT8=
EXTT9=
EXTT10=
PLAYORDER=
